<svg xmlns="http://www.w3.org/2000/svg" version="1.1" xmlns:xlink="http://www.w3.org/1999/xlink" xmlns:svgjs="http://svgjs.dev/svgjs" width="1440" height="560" preserveAspectRatio="none" viewBox="0 0 1440 560"><g mask="url(&quot;#SvgjsMask1300&quot;)" fill="none"><rect width="1440" height="560" x="0" y="0" fill="url(&quot;#SvgjsLinearGradient1301&quot;)"></rect><path d="M-49.15 342.82L-49.15 342.82" stroke="#132e65" stroke-width="1.5"></path><path d="M-49.15 342.82L76.85 367.78" stroke="#132e65" stroke-width="1.5"></path><path d="M-49.15 342.82L-65.67 553.35" stroke="#132e65" stroke-width="1.5"></path><path d="M-49.15 342.82L50.07 534.87" stroke="#132e65" stroke-width="1.5"></path><path d="M-49.15 342.82L201.16 493.16" stroke="#132e65" stroke-width="1.5"></path><path d="M-65.67 553.35L-65.67 553.35" stroke="#132e65" stroke-width="1.5"></path><path d="M-65.67 553.35L50.07 534.87" stroke="#132e65" stroke-width="1.5"></path><path d="M-65.67 553.35L-40.58 682.24" stroke="#132e65" stroke-width="1.5"></path><path d="M-65.67 553.35L62.97 680.44" stroke="#132e65" stroke-width="1.5"></path><path d="M-40.58 682.24L-40.58 682.24" stroke="#132e65" stroke-width="1.5"></path><path d="M-40.58 682.24L62.97 680.44" stroke="#132e65" stroke-width="1.5"></path><path d="M-40.58 682.24L50.07 534.87" stroke="#132e65" stroke-width="1.5"></path><path d="M76.85 367.78L76.85 367.78" stroke="#132e65" stroke-width="1.5"></path><path d="M76.85 367.78L50.07 534.87" stroke="#132e65" stroke-width="1.5"></path><path d="M76.85 367.78L249.19 347.3" stroke="#132e65" stroke-width="1.5"></path><path d="M76.85 367.78L201.16 493.16" stroke="#132e65" stroke-width="1.5"></path><path d="M76.85 367.78L-65.67 553.35" stroke="#132e65" stroke-width="1.5"></path><path d="M76.85 367.78L193.6 642.27" stroke="#132e65" stroke-width="1.5"></path><path d="M50.07 534.87L50.07 534.87" stroke="#132e65" stroke-width="1.5"></path><path d="M50.07 534.87L62.97 680.44" stroke="#132e65" stroke-width="1.5"></path><path d="M50.07 534.87L201.16 493.16" stroke="#132e65" stroke-width="1.5"></path><path d="M62.97 680.44L62.97 680.44" stroke="#132e65" stroke-width="1.5"></path><path d="M62.97 680.44L193.6 642.27" stroke="#132e65" stroke-width="1.5"></path><path d="M249.19 347.3L249.19 347.3" stroke="#132e65" stroke-width="1.5"></path><path d="M249.19 347.3L201.16 493.16" stroke="#132e65" stroke-width="1.5"></path><path d="M249.19 347.3L403.27 353.05" stroke="#132e65" stroke-width="1.5"></path><path d="M201.16 493.16L201.16 493.16" stroke="#132e65" stroke-width="1.5"></path><path d="M201.16 493.16L193.6 642.27" stroke="#132e65" stroke-width="1.5"></path><path d="M193.6 642.27L193.6 642.27" stroke="#132e65" stroke-width="1.5"></path><path d="M193.6 642.27L50.07 534.87" stroke="#132e65" stroke-width="1.5"></path><path d="M193.6 642.27L-40.58 682.24" stroke="#132e65" stroke-width="1.5"></path><path d="M403.27 353.05L403.27 353.05" stroke="#132e65" stroke-width="1.5"></path><path d="M403.27 353.05L550.59 376.1" stroke="#132e65" stroke-width="1.5"></path><path d="M403.27 353.05L201.16 493.16" stroke="#132e65" stroke-width="1.5"></path><path d="M403.27 353.05L559.03 551.02" stroke="#132e65" stroke-width="1.5"></path><path d="M403.27 353.05L695.06 405.86" stroke="#132e65" stroke-width="1.5"></path><path d="M403.27 353.05L690.56 255.86" stroke="#132e65" stroke-width="1.5"></path><path d="M550.59 376.1L550.59 376.1" stroke="#132e65" stroke-width="1.5"></path><path d="M550.59 376.1L695.06 405.86" stroke="#132e65" stroke-width="1.5"></path><path d="M550.59 376.1L559.03 551.02" stroke="#132e65" stroke-width="1.5"></path><path d="M550.59 376.1L667.64 510.93" stroke="#132e65" stroke-width="1.5"></path><path d="M559.03 551.02L559.03 551.02" stroke="#132e65" stroke-width="1.5"></path><path d="M559.03 551.02L667.64 510.93" stroke="#132e65" stroke-width="1.5"></path><path d="M559.03 551.02L504.4 674.84" stroke="#132e65" stroke-width="1.5"></path><path d="M504.4 674.84L504.4 674.84" stroke="#132e65" stroke-width="1.5"></path><path d="M504.4 674.84L685.93 710.63" stroke="#132e65" stroke-width="1.5"></path><path d="M504.4 674.84L667.64 510.93" stroke="#132e65" stroke-width="1.5"></path><path d="M504.4 674.84L550.59 376.1" stroke="#132e65" stroke-width="1.5"></path><path d="M504.4 674.84L193.6 642.27" stroke="#132e65" stroke-width="1.5"></path><path d="M690.56 255.86L690.56 255.86" stroke="#132e65" stroke-width="1.5"></path><path d="M690.56 255.86L792.32 362.76" stroke="#132e65" stroke-width="1.5"></path><path d="M690.56 255.86L695.06 405.86" stroke="#132e65" stroke-width="1.5"></path><path d="M690.56 255.86L831.56 195.08" stroke="#132e65" stroke-width="1.5"></path><path d="M690.56 255.86L550.59 376.1" stroke="#132e65" stroke-width="1.5"></path><path d="M695.06 405.86L695.06 405.86" stroke="#132e65" stroke-width="1.5"></path><path d="M695.06 405.86L792.32 362.76" stroke="#132e65" stroke-width="1.5"></path><path d="M695.06 405.86L667.64 510.93" stroke="#132e65" stroke-width="1.5"></path><path d="M695.06 405.86L559.03 551.02" stroke="#132e65" stroke-width="1.5"></path><path d="M695.06 405.86L831.56 195.08" stroke="#132e65" stroke-width="1.5"></path><path d="M667.64 510.93L667.64 510.93" stroke="#132e65" stroke-width="1.5"></path><path d="M685.93 710.63L685.93 710.63" stroke="#132e65" stroke-width="1.5"></path><path d="M685.93 710.63L843.26 681.95" stroke="#132e65" stroke-width="1.5"></path><path d="M685.93 710.63L667.64 510.93" stroke="#132e65" stroke-width="1.5"></path><path d="M831.56 195.08L831.56 195.08" stroke="#132e65" stroke-width="1.5"></path><path d="M831.56 195.08L957.69 253.65" stroke="#132e65" stroke-width="1.5"></path><path d="M792.32 362.76L792.32 362.76" stroke="#132e65" stroke-width="1.5"></path><path d="M792.32 362.76L949.7 351.6" stroke="#132e65" stroke-width="1.5"></path><path d="M792.32 362.76L831.56 195.08" stroke="#132e65" stroke-width="1.5"></path><path d="M843.26 681.95L843.26 681.95" stroke="#132e65" stroke-width="1.5"></path><path d="M843.26 681.95L968.65 709.04" stroke="#132e65" stroke-width="1.5"></path><path d="M961.7 -71.33L961.7 -71.33" stroke="#132e65" stroke-width="1.5"></path><path d="M961.7 -71.33L996.57 53.52" stroke="#132e65" stroke-width="1.5"></path><path d="M961.7 -71.33L1102.17 -38.01" stroke="#132e65" stroke-width="1.5"></path><path d="M996.57 53.52L996.57 53.52" stroke="#132e65" stroke-width="1.5"></path><path d="M996.57 53.52L1095.97 92.84" stroke="#132e65" stroke-width="1.5"></path><path d="M996.57 53.52L1102.17 -38.01" stroke="#132e65" stroke-width="1.5"></path><path d="M957.69 253.65L957.69 253.65" stroke="#132e65" stroke-width="1.5"></path><path d="M957.69 253.65L949.7 351.6" stroke="#132e65" stroke-width="1.5"></path><path d="M957.69 253.65L1091.87 393.72" stroke="#132e65" stroke-width="1.5"></path><path d="M957.69 253.65L792.32 362.76" stroke="#132e65" stroke-width="1.5"></path><path d="M957.69 253.65L996.57 53.52" stroke="#132e65" stroke-width="1.5"></path><path d="M957.69 253.65L1161.56 249.93" stroke="#132e65" stroke-width="1.5"></path><path d="M949.7 351.6L949.7 351.6" stroke="#132e65" stroke-width="1.5"></path><path d="M949.7 351.6L1091.87 393.72" stroke="#132e65" stroke-width="1.5"></path><path d="M949.7 351.6L831.56 195.08" stroke="#132e65" stroke-width="1.5"></path><path d="M949.7 351.6L1161.56 249.93" stroke="#132e65" stroke-width="1.5"></path><path d="M968.65 709.04L968.65 709.04" stroke="#132e65" stroke-width="1.5"></path><path d="M968.65 709.04L1121.5 659.75" stroke="#132e65" stroke-width="1.5"></path><path d="M968.65 709.04L1137.5 540.43" stroke="#132e65" stroke-width="1.5"></path><path d="M968.65 709.04L685.93 710.63" stroke="#132e65" stroke-width="1.5"></path><path d="M968.65 709.04L1091.87 393.72" stroke="#132e65" stroke-width="1.5"></path><path d="M968.65 709.04L1308.03 665.5" stroke="#132e65" stroke-width="1.5"></path><path d="M1102.17 -38.01L1102.17 -38.01" stroke="#132e65" stroke-width="1.5"></path><path d="M1102.17 -38.01L1095.97 92.84" stroke="#132e65" stroke-width="1.5"></path><path d="M1102.17 -38.01L1258.3 -59.57" stroke="#132e65" stroke-width="1.5"></path><path d="M1102.17 -38.01L1293.8 58.52" stroke="#132e65" stroke-width="1.5"></path><path d="M1095.97 92.84L1095.97 92.84" stroke="#132e65" stroke-width="1.5"></path><path d="M1161.56 249.93L1161.56 249.93" stroke="#132e65" stroke-width="1.5"></path><path d="M1161.56 249.93L1274.28 195.89" stroke="#132e65" stroke-width="1.5"></path><path d="M1161.56 249.93L1244.68 369.32" stroke="#132e65" stroke-width="1.5"></path><path d="M1161.56 249.93L1091.87 393.72" stroke="#132e65" stroke-width="1.5"></path><path d="M1161.56 249.93L1095.97 92.84" stroke="#132e65" stroke-width="1.5"></path><path d="M1091.87 393.72L1091.87 393.72" stroke="#132e65" stroke-width="1.5"></path><path d="M1091.87 393.72L1137.5 540.43" stroke="#132e65" stroke-width="1.5"></path><path d="M1091.87 393.72L1244.68 369.32" stroke="#132e65" stroke-width="1.5"></path><path d="M1137.5 540.43L1137.5 540.43" stroke="#132e65" stroke-width="1.5"></path><path d="M1137.5 540.43L1121.5 659.75" stroke="#132e65" stroke-width="1.5"></path><path d="M1137.5 540.43L1311.86 517.43" stroke="#132e65" stroke-width="1.5"></path><path d="M1137.5 540.43L1244.68 369.32" stroke="#132e65" stroke-width="1.5"></path><path d="M1121.5 659.75L1121.5 659.75" stroke="#132e65" stroke-width="1.5"></path><path d="M1121.5 659.75L1308.03 665.5" stroke="#132e65" stroke-width="1.5"></path><path d="M1121.5 659.75L1311.86 517.43" stroke="#132e65" stroke-width="1.5"></path><path d="M1121.5 659.75L1091.87 393.72" stroke="#132e65" stroke-width="1.5"></path><path d="M1258.3 -59.57L1258.3 -59.57" stroke="#132e65" stroke-width="1.5"></path><path d="M1258.3 -59.57L1293.8 58.52" stroke="#132e65" stroke-width="1.5"></path><path d="M1258.3 -59.57L1407.93 -99.72" stroke="#132e65" stroke-width="1.5"></path><path d="M1258.3 -59.57L1095.97 92.84" stroke="#132e65" stroke-width="1.5"></path><path d="M1258.3 -59.57L1410.46 108.46" stroke="#132e65" stroke-width="1.5"></path><path d="M1258.3 -59.57L1274.28 195.89" stroke="#132e65" stroke-width="1.5"></path><path d="M1293.8 58.52L1293.8 58.52" stroke="#132e65" stroke-width="1.5"></path><path d="M1293.8 58.52L1410.46 108.46" stroke="#132e65" stroke-width="1.5"></path><path d="M1293.8 58.52L1274.28 195.89" stroke="#132e65" stroke-width="1.5"></path><path d="M1293.8 58.52L1407.93 -99.72" stroke="#132e65" stroke-width="1.5"></path><path d="M1293.8 58.52L1095.97 92.84" stroke="#132e65" stroke-width="1.5"></path><path d="M1274.28 195.89L1274.28 195.89" stroke="#132e65" stroke-width="1.5"></path><path d="M1274.28 195.89L1410.46 108.46" stroke="#132e65" stroke-width="1.5"></path><path d="M1274.28 195.89L1244.68 369.32" stroke="#132e65" stroke-width="1.5"></path><path d="M1244.68 369.32L1244.68 369.32" stroke="#132e65" stroke-width="1.5"></path><path d="M1244.68 369.32L1311.86 517.43" stroke="#132e65" stroke-width="1.5"></path><path d="M1244.68 369.32L1427.29 365.35" stroke="#132e65" stroke-width="1.5"></path><path d="M1244.68 369.32L1391.46 506.4" stroke="#132e65" stroke-width="1.5"></path><path d="M1311.86 517.43L1311.86 517.43" stroke="#132e65" stroke-width="1.5"></path><path d="M1311.86 517.43L1391.46 506.4" stroke="#132e65" stroke-width="1.5"></path><path d="M1311.86 517.43L1308.03 665.5" stroke="#132e65" stroke-width="1.5"></path><path d="M1311.86 517.43L1427.29 365.35" stroke="#132e65" stroke-width="1.5"></path><path d="M1308.03 665.5L1308.03 665.5" stroke="#132e65" stroke-width="1.5"></path><path d="M1308.03 665.5L1409.59 702.05" stroke="#132e65" stroke-width="1.5"></path><path d="M1308.03 665.5L1391.46 506.4" stroke="#132e65" stroke-width="1.5"></path><path d="M1407.93 -99.72L1407.93 -99.72" stroke="#132e65" stroke-width="1.5"></path><path d="M1407.93 -99.72L1547.58 -42.88" stroke="#132e65" stroke-width="1.5"></path><path d="M1407.93 -99.72L1410.46 108.46" stroke="#132e65" stroke-width="1.5"></path><path d="M1410.46 108.46L1410.46 108.46" stroke="#132e65" stroke-width="1.5"></path><path d="M1427.29 365.35L1427.29 365.35" stroke="#132e65" stroke-width="1.5"></path><path d="M1427.29 365.35L1391.46 506.4" stroke="#132e65" stroke-width="1.5"></path><path d="M1427.29 365.35L1579.25 374.4" stroke="#132e65" stroke-width="1.5"></path><path d="M1427.29 365.35L1579.02 500.64" stroke="#132e65" stroke-width="1.5"></path><path d="M1427.29 365.35L1566.91 187.67" stroke="#132e65" stroke-width="1.5"></path><path d="M1391.46 506.4L1391.46 506.4" stroke="#132e65" stroke-width="1.5"></path><path d="M1391.46 506.4L1579.02 500.64" stroke="#132e65" stroke-width="1.5"></path><path d="M1409.59 702.05L1409.59 702.05" stroke="#132e65" stroke-width="1.5"></path><path d="M1409.59 702.05L1391.46 506.4" stroke="#132e65" stroke-width="1.5"></path><path d="M1409.59 702.05L1603.09 638.68" stroke="#132e65" stroke-width="1.5"></path><path d="M1409.59 702.05L1311.86 517.43" stroke="#132e65" stroke-width="1.5"></path><path d="M1547.58 -42.88L1547.58 -42.88" stroke="#132e65" stroke-width="1.5"></path><path d="M1547.58 -42.88L1580.65 104.45" stroke="#132e65" stroke-width="1.5"></path><path d="M1547.58 -42.88L1410.46 108.46" stroke="#132e65" stroke-width="1.5"></path><path d="M1547.58 -42.88L1566.91 187.67" stroke="#132e65" stroke-width="1.5"></path><path d="M1580.65 104.45L1580.65 104.45" stroke="#132e65" stroke-width="1.5"></path><path d="M1580.65 104.45L1566.91 187.67" stroke="#132e65" stroke-width="1.5"></path><path d="M1580.65 104.45L1410.46 108.46" stroke="#132e65" stroke-width="1.5"></path><path d="M1580.65 104.45L1407.93 -99.72" stroke="#132e65" stroke-width="1.5"></path><path d="M1580.65 104.45L1579.25 374.4" stroke="#132e65" stroke-width="1.5"></path><path d="M1580.65 104.45L1293.8 58.52" stroke="#132e65" stroke-width="1.5"></path><path d="M1566.91 187.67L1566.91 187.67" stroke="#132e65" stroke-width="1.5"></path><path d="M1566.91 187.67L1410.46 108.46" stroke="#132e65" stroke-width="1.5"></path><path d="M1579.25 374.4L1579.25 374.4" stroke="#132e65" stroke-width="1.5"></path><path d="M1579.25 374.4L1579.02 500.64" stroke="#132e65" stroke-width="1.5"></path><path d="M1579.25 374.4L1566.91 187.67" stroke="#132e65" stroke-width="1.5"></path><path d="M1579.25 374.4L1391.46 506.4" stroke="#132e65" stroke-width="1.5"></path><path d="M1579.02 500.64L1579.02 500.64" stroke="#132e65" stroke-width="1.5"></path><path d="M1579.02 500.64L1603.09 638.68" stroke="#132e65" stroke-width="1.5"></path><path d="M1603.09 638.68L1603.09 638.68" stroke="#132e65" stroke-width="1.5"></path><circle r="5" cx="-49.15" cy="342.82" fill="#132e65"></circle><circle r="5" cx="-65.67" cy="553.35" fill="#132e65"></circle><circle r="5" cx="-40.58" cy="682.24" fill="#132e65"></circle><circle r="5" cx="76.85" cy="367.78" fill="#132e65"></circle><circle r="5" cx="50.07" cy="534.87" fill="#132e65"></circle><circle r="5" cx="62.97" cy="680.44" fill="#132e65"></circle><circle r="5" cx="249.19" cy="347.3" fill="#132e65"></circle><circle r="5" cx="201.16" cy="493.16" fill="#132e65"></circle><circle r="5" cx="193.6" cy="642.27" fill="#132e65"></circle><circle r="5" cx="403.27" cy="353.05" fill="#132e65"></circle><circle r="5" cx="550.59" cy="376.1" fill="#132e65"></circle><circle r="5" cx="559.03" cy="551.02" fill="#132e65"></circle><circle r="5" cx="504.4" cy="674.84" fill="#132e65"></circle><circle r="5" cx="690.56" cy="255.86" fill="#132e65"></circle><circle r="5" cx="695.06" cy="405.86" fill="#132e65"></circle><circle r="5" cx="667.64" cy="510.93" fill="#132e65"></circle><circle r="5" cx="685.93" cy="710.63" fill="#132e65"></circle><circle r="5" cx="831.56" cy="195.08" fill="#132e65"></circle><circle r="5" cx="792.32" cy="362.76" fill="#132e65"></circle><circle r="5" cx="843.26" cy="681.95" fill="#132e65"></circle><circle r="5" cx="961.7" cy="-71.33" fill="#132e65"></circle><circle r="5" cx="996.57" cy="53.52" fill="#132e65"></circle><circle r="5" cx="957.69" cy="253.65" fill="#132e65"></circle><circle r="5" cx="949.7" cy="351.6" fill="#132e65"></circle><circle r="5" cx="968.65" cy="709.04" fill="#132e65"></circle><circle r="5" cx="1102.17" cy="-38.01" fill="#132e65"></circle><circle r="5" cx="1095.97" cy="92.84" fill="#132e65"></circle><circle r="5" cx="1161.56" cy="249.93" fill="#132e65"></circle><circle r="5" cx="1091.87" cy="393.72" fill="#132e65"></circle><circle r="5" cx="1137.5" cy="540.43" fill="#132e65"></circle><circle r="5" cx="1121.5" cy="659.75" fill="#132e65"></circle><circle r="5" cx="1258.3" cy="-59.57" fill="#132e65"></circle><circle r="5" cx="1293.8" cy="58.52" fill="#132e65"></circle><circle r="5" cx="1274.28" cy="195.89" fill="#132e65"></circle><circle r="5" cx="1244.68" cy="369.32" fill="#132e65"></circle><circle r="5" cx="1311.86" cy="517.43" fill="#132e65"></circle><circle r="5" cx="1308.03" cy="665.5" fill="#132e65"></circle><circle r="5" cx="1407.93" cy="-99.72" fill="#132e65"></circle><circle r="5" cx="1410.46" cy="108.46" fill="#132e65"></circle><circle r="5" cx="1427.29" cy="365.35" fill="#132e65"></circle><circle r="5" cx="1391.46" cy="506.4" fill="#132e65"></circle><circle r="5" cx="1409.59" cy="702.05" fill="#132e65"></circle><circle r="5" cx="1547.58" cy="-42.88" fill="#132e65"></circle><circle r="5" cx="1580.65" cy="104.45" fill="#132e65"></circle><circle r="5" cx="1566.91" cy="187.67" fill="#132e65"></circle><circle r="5" cx="1579.25" cy="374.4" fill="#132e65"></circle><circle r="5" cx="1579.02" cy="500.64" fill="#132e65"></circle><circle r="5" cx="1603.09" cy="638.68" fill="#132e65"></circle><path d="M63.04 503.76L63.04 503.76" stroke="hsl(228.5, 77.2%, 51.5%)" stroke-width="1.5"></path><path d="M63.04 503.76L-77.26 552.68" stroke="hsl(228.5, 77.2%, 51.5%)" stroke-width="1.5"></path><path d="M63.04 503.76L231.16 503.43" stroke="hsl(228.5, 77.2%, 51.5%)" stroke-width="1.5"></path><path d="M63.04 503.76L96.09 670.41" stroke="hsl(228.5, 77.2%, 51.5%)" stroke-width="1.5"></path><path d="M63.04 503.76L224.15 661.8" stroke="hsl(228.5, 77.2%, 51.5%)" stroke-width="1.5"></path><path d="M63.04 503.76L341.08 559.95" stroke="hsl(228.5, 77.2%, 51.5%)" stroke-width="1.5"></path><path d="M63.04 503.76L341.06 676.01" stroke="hsl(228.5, 77.2%, 51.5%)" stroke-width="1.5"></path><path d="M96.09 670.41L96.09 670.41" stroke="hsl(228.5, 77.2%, 51.5%)" stroke-width="1.5"></path><path d="M96.09 670.41L224.15 661.8" stroke="hsl(228.5, 77.2%, 51.5%)" stroke-width="1.5"></path><path d="M96.09 670.41L-77.26 552.68" stroke="hsl(228.5, 77.2%, 51.5%)" stroke-width="1.5"></path><path d="M341.06 676.01L341.06 676.01" stroke="hsl(228.5, 77.2%, 51.5%)" stroke-width="1.5"></path><path d="M341.06 676.01L341.08 559.95" stroke="hsl(228.5, 77.2%, 51.5%)" stroke-width="1.5"></path><path d="M341.06 676.01L224.15 661.8" stroke="hsl(228.5, 77.2%, 51.5%)" stroke-width="1.5"></path><path d="M341.06 676.01L530.33 645.79" stroke="hsl(228.5, 77.2%, 51.5%)" stroke-width="1.5"></path><path d="M341.06 676.01L231.16 503.43" stroke="hsl(228.5, 77.2%, 51.5%)" stroke-width="1.5"></path><path d="M659.57 411.02L659.57 411.02" stroke="hsl(228.5, 77.2%, 51.5%)" stroke-width="1.5"></path><path d="M659.57 411.02L667.57 508.84" stroke="hsl(228.5, 77.2%, 51.5%)" stroke-width="1.5"></path><path d="M659.57 411.02L816.84 409.44" stroke="hsl(228.5, 77.2%, 51.5%)" stroke-width="1.5"></path><path d="M659.57 411.02L549.83 527.52" stroke="hsl(228.5, 77.2%, 51.5%)" stroke-width="1.5"></path><path d="M836.12 544.82L836.12 544.82" stroke="hsl(228.5, 77.2%, 51.5%)" stroke-width="1.5"></path><path d="M836.12 544.82L816.84 409.44" stroke="hsl(228.5, 77.2%, 51.5%)" stroke-width="1.5"></path><path d="M836.12 544.82L983.38 562.25" stroke="hsl(228.5, 77.2%, 51.5%)" stroke-width="1.5"></path><path d="M1005.08 407.32L1005.08 407.32" stroke="hsl(228.5, 77.2%, 51.5%)" stroke-width="1.5"></path><path d="M1005.08 407.32L1096.47 375.47" stroke="hsl(228.5, 77.2%, 51.5%)" stroke-width="1.5"></path><path d="M1005.08 407.32L983.38 562.25" stroke="hsl(228.5, 77.2%, 51.5%)" stroke-width="1.5"></path><path d="M1005.08 407.32L816.84 409.44" stroke="hsl(228.5, 77.2%, 51.5%)" stroke-width="1.5"></path><path d="M1005.08 407.32L1145.27 538.54" stroke="hsl(228.5, 77.2%, 51.5%)" stroke-width="1.5"></path><path d="M1005.08 407.32L1096.99 215.98" stroke="hsl(228.5, 77.2%, 51.5%)" stroke-width="1.5"></path><path d="M1096.47 375.47L1096.47 375.47" stroke="hsl(228.5, 77.2%, 51.5%)" stroke-width="1.5"></path><path d="M1096.47 375.47L1096.99 215.98" stroke="hsl(228.5, 77.2%, 51.5%)" stroke-width="1.5"></path><path d="M1096.47 375.47L1255.75 366.08" stroke="hsl(228.5, 77.2%, 51.5%)" stroke-width="1.5"></path><path d="M1308.8 522.93L1308.8 522.93" stroke="hsl(228.5, 77.2%, 51.5%)" stroke-width="1.5"></path><path d="M1308.8 522.93L1451.89 534.32" stroke="hsl(228.5, 77.2%, 51.5%)" stroke-width="1.5"></path><path d="M1308.8 522.93L1145.27 538.54" stroke="hsl(228.5, 77.2%, 51.5%)" stroke-width="1.5"></path><path d="M1308.8 522.93L1406.29 390.35" stroke="hsl(228.5, 77.2%, 51.5%)" stroke-width="1.5"></path><path d="M1308.8 522.93L1255.75 366.08" stroke="hsl(228.5, 77.2%, 51.5%)" stroke-width="1.5"></path><path d="M1308.8 522.93L1394.36 670.62" stroke="hsl(228.5, 77.2%, 51.5%)" stroke-width="1.5"></path><path d="M1432.27 -39.84L1432.27 -39.84" stroke="hsl(228.5, 77.2%, 51.5%)" stroke-width="1.5"></path><path d="M1432.27 -39.84L1431.47 77.09" stroke="hsl(228.5, 77.2%, 51.5%)" stroke-width="1.5"></path><path d="M1432.27 -39.84L1558.82 -40.37" stroke="hsl(228.5, 77.2%, 51.5%)" stroke-width="1.5"></path><path d="M1432.27 -39.84L1305.54 -85.94" stroke="hsl(228.5, 77.2%, 51.5%)" stroke-width="1.5"></path><path d="M1432.27 -39.84L1573.41 97.19" stroke="hsl(228.5, 77.2%, 51.5%)" stroke-width="1.5"></path><path d="M1432.27 -39.84L1243.49 77.72" stroke="hsl(228.5, 77.2%, 51.5%)" stroke-width="1.5"></path><path d="M1414.57 201.58L1414.57 201.58" stroke="hsl(228.5, 77.2%, 51.5%)" stroke-width="1.5"></path><path d="M1414.57 201.58L1431.47 77.09" stroke="hsl(228.5, 77.2%, 51.5%)" stroke-width="1.5"></path><path d="M1414.57 201.58L1266.39 219.05" stroke="hsl(228.5, 77.2%, 51.5%)" stroke-width="1.5"></path><path d="M1414.57 201.58L1565.76 246.52" stroke="hsl(228.5, 77.2%, 51.5%)" stroke-width="1.5"></path><path d="M1414.57 201.58L1406.29 390.35" stroke="hsl(228.5, 77.2%, 51.5%)" stroke-width="1.5"></path><path d="M1414.57 201.58L1573.41 97.19" stroke="hsl(228.5, 77.2%, 51.5%)" stroke-width="1.5"></path><path d="M1414.57 201.58L1243.49 77.72" stroke="hsl(228.5, 77.2%, 51.5%)" stroke-width="1.5"></path><path d="M-77.26 552.68L-77.26 552.68" stroke="hsl(228.5, 77.2%, 51.5%)" stroke-width="1.5"></path><path d="M-77.26 552.68L231.16 503.43" stroke="hsl(228.5, 77.2%, 51.5%)" stroke-width="1.5"></path><path d="M231.16 503.43L231.16 503.43" stroke="hsl(228.5, 77.2%, 51.5%)" stroke-width="1.5"></path><path d="M231.16 503.43L341.08 559.95" stroke="hsl(228.5, 77.2%, 51.5%)" stroke-width="1.5"></path><path d="M231.16 503.43L224.15 661.8" stroke="hsl(228.5, 77.2%, 51.5%)" stroke-width="1.5"></path><path d="M224.15 661.8L224.15 661.8" stroke="hsl(228.5, 77.2%, 51.5%)" stroke-width="1.5"></path><path d="M224.15 661.8L341.08 559.95" stroke="hsl(228.5, 77.2%, 51.5%)" stroke-width="1.5"></path><path d="M341.08 559.95L341.08 559.95" stroke="hsl(228.5, 77.2%, 51.5%)" stroke-width="1.5"></path><path d="M341.08 559.95L530.33 645.79" stroke="hsl(228.5, 77.2%, 51.5%)" stroke-width="1.5"></path><path d="M341.08 559.95L549.83 527.52" stroke="hsl(228.5, 77.2%, 51.5%)" stroke-width="1.5"></path><path d="M341.08 559.95L96.09 670.41" stroke="hsl(228.5, 77.2%, 51.5%)" stroke-width="1.5"></path><path d="M549.83 527.52L549.83 527.52" stroke="hsl(228.5, 77.2%, 51.5%)" stroke-width="1.5"></path><path d="M549.83 527.52L667.57 508.84" stroke="hsl(228.5, 77.2%, 51.5%)" stroke-width="1.5"></path><path d="M549.83 527.52L530.33 645.79" stroke="hsl(228.5, 77.2%, 51.5%)" stroke-width="1.5"></path><path d="M549.83 527.52L690.09 685.42" stroke="hsl(228.5, 77.2%, 51.5%)" stroke-width="1.5"></path><path d="M549.83 527.52L341.06 676.01" stroke="hsl(228.5, 77.2%, 51.5%)" stroke-width="1.5"></path><path d="M530.33 645.79L530.33 645.79" stroke="hsl(228.5, 77.2%, 51.5%)" stroke-width="1.5"></path><path d="M530.33 645.79L690.09 685.42" stroke="hsl(228.5, 77.2%, 51.5%)" stroke-width="1.5"></path><path d="M530.33 645.79L667.57 508.84" stroke="hsl(228.5, 77.2%, 51.5%)" stroke-width="1.5"></path><path d="M667.57 508.84L667.57 508.84" stroke="hsl(228.5, 77.2%, 51.5%)" stroke-width="1.5"></path><path d="M667.57 508.84L836.12 544.82" stroke="hsl(228.5, 77.2%, 51.5%)" stroke-width="1.5"></path><path d="M690.09 685.42L690.09 685.42" stroke="hsl(228.5, 77.2%, 51.5%)" stroke-width="1.5"></path><path d="M690.09 685.42L836.93 693.72" stroke="hsl(228.5, 77.2%, 51.5%)" stroke-width="1.5"></path><path d="M690.09 685.42L667.57 508.84" stroke="hsl(228.5, 77.2%, 51.5%)" stroke-width="1.5"></path><path d="M816.84 409.44L816.84 409.44" stroke="hsl(228.5, 77.2%, 51.5%)" stroke-width="1.5"></path><path d="M816.84 409.44L667.57 508.84" stroke="hsl(228.5, 77.2%, 51.5%)" stroke-width="1.5"></path><path d="M836.93 693.72L836.93 693.72" stroke="hsl(228.5, 77.2%, 51.5%)" stroke-width="1.5"></path><path d="M836.93 693.72L836.12 544.82" stroke="hsl(228.5, 77.2%, 51.5%)" stroke-width="1.5"></path><path d="M836.93 693.72L985.13 710.84" stroke="hsl(228.5, 77.2%, 51.5%)" stroke-width="1.5"></path><path d="M836.93 693.72L983.38 562.25" stroke="hsl(228.5, 77.2%, 51.5%)" stroke-width="1.5"></path><path d="M836.93 693.72L667.57 508.84" stroke="hsl(228.5, 77.2%, 51.5%)" stroke-width="1.5"></path><path d="M836.93 693.72L1096.31 703.11" stroke="hsl(228.5, 77.2%, 51.5%)" stroke-width="1.5"></path><path d="M983.38 562.25L983.38 562.25" stroke="hsl(228.5, 77.2%, 51.5%)" stroke-width="1.5"></path><path d="M983.38 562.25L985.13 710.84" stroke="hsl(228.5, 77.2%, 51.5%)" stroke-width="1.5"></path><path d="M983.38 562.25L1145.27 538.54" stroke="hsl(228.5, 77.2%, 51.5%)" stroke-width="1.5"></path><path d="M983.38 562.25L1096.31 703.11" stroke="hsl(228.5, 77.2%, 51.5%)" stroke-width="1.5"></path><path d="M985.13 710.84L985.13 710.84" stroke="hsl(228.5, 77.2%, 51.5%)" stroke-width="1.5"></path><path d="M985.13 710.84L1096.31 703.11" stroke="hsl(228.5, 77.2%, 51.5%)" stroke-width="1.5"></path><path d="M1096.99 215.98L1096.99 215.98" stroke="hsl(228.5, 77.2%, 51.5%)" stroke-width="1.5"></path><path d="M1096.99 215.98L1266.39 219.05" stroke="hsl(228.5, 77.2%, 51.5%)" stroke-width="1.5"></path><path d="M1096.99 215.98L1243.49 77.72" stroke="hsl(228.5, 77.2%, 51.5%)" stroke-width="1.5"></path><path d="M1145.27 538.54L1145.27 538.54" stroke="hsl(228.5, 77.2%, 51.5%)" stroke-width="1.5"></path><path d="M1145.27 538.54L1096.47 375.47" stroke="hsl(228.5, 77.2%, 51.5%)" stroke-width="1.5"></path><path d="M1096.31 703.11L1096.31 703.11" stroke="hsl(228.5, 77.2%, 51.5%)" stroke-width="1.5"></path><path d="M1096.31 703.11L1261.29 692.17" stroke="hsl(228.5, 77.2%, 51.5%)" stroke-width="1.5"></path><path d="M1096.31 703.11L1145.27 538.54" stroke="hsl(228.5, 77.2%, 51.5%)" stroke-width="1.5"></path><path d="M1305.54 -85.94L1305.54 -85.94" stroke="hsl(228.5, 77.2%, 51.5%)" stroke-width="1.5"></path><path d="M1305.54 -85.94L1243.49 77.72" stroke="hsl(228.5, 77.2%, 51.5%)" stroke-width="1.5"></path><path d="M1243.49 77.72L1243.49 77.72" stroke="hsl(228.5, 77.2%, 51.5%)" stroke-width="1.5"></path><path d="M1243.49 77.72L1266.39 219.05" stroke="hsl(228.5, 77.2%, 51.5%)" stroke-width="1.5"></path><path d="M1266.39 219.05L1266.39 219.05" stroke="hsl(228.5, 77.2%, 51.5%)" stroke-width="1.5"></path><path d="M1266.39 219.05L1255.75 366.08" stroke="hsl(228.5, 77.2%, 51.5%)" stroke-width="1.5"></path><path d="M1266.39 219.05L1431.47 77.09" stroke="hsl(228.5, 77.2%, 51.5%)" stroke-width="1.5"></path><path d="M1266.39 219.05L1406.29 390.35" stroke="hsl(228.5, 77.2%, 51.5%)" stroke-width="1.5"></path><path d="M1255.75 366.08L1255.75 366.08" stroke="hsl(228.5, 77.2%, 51.5%)" stroke-width="1.5"></path><path d="M1255.75 366.08L1406.29 390.35" stroke="hsl(228.5, 77.2%, 51.5%)" stroke-width="1.5"></path><path d="M1261.29 692.17L1261.29 692.17" stroke="hsl(228.5, 77.2%, 51.5%)" stroke-width="1.5"></path><path d="M1261.29 692.17L1394.36 670.62" stroke="hsl(228.5, 77.2%, 51.5%)" stroke-width="1.5"></path><path d="M1261.29 692.17L1308.8 522.93" stroke="hsl(228.5, 77.2%, 51.5%)" stroke-width="1.5"></path><path d="M1431.47 77.09L1431.47 77.09" stroke="hsl(228.5, 77.2%, 51.5%)" stroke-width="1.5"></path><path d="M1431.47 77.09L1573.41 97.19" stroke="hsl(228.5, 77.2%, 51.5%)" stroke-width="1.5"></path><path d="M1431.47 77.09L1558.82 -40.37" stroke="hsl(228.5, 77.2%, 51.5%)" stroke-width="1.5"></path><path d="M1431.47 77.09L1243.49 77.72" stroke="hsl(228.5, 77.2%, 51.5%)" stroke-width="1.5"></path><path d="M1431.47 77.09L1305.54 -85.94" stroke="hsl(228.5, 77.2%, 51.5%)" stroke-width="1.5"></path><path d="M1406.29 390.35L1406.29 390.35" stroke="hsl(228.5, 77.2%, 51.5%)" stroke-width="1.5"></path><path d="M1406.29 390.35L1451.89 534.32" stroke="hsl(228.5, 77.2%, 51.5%)" stroke-width="1.5"></path><path d="M1406.29 390.35L1602.93 412.05" stroke="hsl(228.5, 77.2%, 51.5%)" stroke-width="1.5"></path><path d="M1451.89 534.32L1451.89 534.32" stroke="hsl(228.5, 77.2%, 51.5%)" stroke-width="1.5"></path><path d="M1451.89 534.32L1556.39 536.65" stroke="hsl(228.5, 77.2%, 51.5%)" stroke-width="1.5"></path><path d="M1451.89 534.32L1394.36 670.62" stroke="hsl(228.5, 77.2%, 51.5%)" stroke-width="1.5"></path><path d="M1394.36 670.62L1394.36 670.62" stroke="hsl(228.5, 77.2%, 51.5%)" stroke-width="1.5"></path><path d="M1394.36 670.62L1546.31 710.51" stroke="hsl(228.5, 77.2%, 51.5%)" stroke-width="1.5"></path><path d="M1558.82 -40.37L1558.82 -40.37" stroke="hsl(228.5, 77.2%, 51.5%)" stroke-width="1.5"></path><path d="M1558.82 -40.37L1573.41 97.19" stroke="hsl(228.5, 77.2%, 51.5%)" stroke-width="1.5"></path><path d="M1558.82 -40.37L1305.54 -85.94" stroke="hsl(228.5, 77.2%, 51.5%)" stroke-width="1.5"></path><path d="M1558.82 -40.37L1414.57 201.58" stroke="hsl(228.5, 77.2%, 51.5%)" stroke-width="1.5"></path><path d="M1573.41 97.19L1573.41 97.19" stroke="hsl(228.5, 77.2%, 51.5%)" stroke-width="1.5"></path><path d="M1573.41 97.19L1565.76 246.52" stroke="hsl(228.5, 77.2%, 51.5%)" stroke-width="1.5"></path><path d="M1573.41 97.19L1602.93 412.05" stroke="hsl(228.5, 77.2%, 51.5%)" stroke-width="1.5"></path><path d="M1565.76 246.52L1565.76 246.52" stroke="hsl(228.5, 77.2%, 51.5%)" stroke-width="1.5"></path><path d="M1565.76 246.52L1602.93 412.05" stroke="hsl(228.5, 77.2%, 51.5%)" stroke-width="1.5"></path><path d="M1565.76 246.52L1406.29 390.35" stroke="hsl(228.5, 77.2%, 51.5%)" stroke-width="1.5"></path><path d="M1602.93 412.05L1602.93 412.05" stroke="hsl(228.5, 77.2%, 51.5%)" stroke-width="1.5"></path><path d="M1602.93 412.05L1556.39 536.65" stroke="hsl(228.5, 77.2%, 51.5%)" stroke-width="1.5"></path><path d="M1602.93 412.05L1451.89 534.32" stroke="hsl(228.5, 77.2%, 51.5%)" stroke-width="1.5"></path><path d="M1602.93 412.05L1414.57 201.58" stroke="hsl(228.5, 77.2%, 51.5%)" stroke-width="1.5"></path><path d="M1556.39 536.65L1556.39 536.65" stroke="hsl(228.5, 77.2%, 51.5%)" stroke-width="1.5"></path><path d="M1556.39 536.65L1546.31 710.51" stroke="hsl(228.5, 77.2%, 51.5%)" stroke-width="1.5"></path><path d="M1556.39 536.65L1406.29 390.35" stroke="hsl(228.5, 77.2%, 51.5%)" stroke-width="1.5"></path><path d="M1556.39 536.65L1394.36 670.62" stroke="hsl(228.5, 77.2%, 51.5%)" stroke-width="1.5"></path><path d="M1556.39 536.65L1308.8 522.93" stroke="hsl(228.5, 77.2%, 51.5%)" stroke-width="1.5"></path><path d="M1546.31 710.51L1546.31 710.51" stroke="hsl(228.5, 77.2%, 51.5%)" stroke-width="1.5"></path><path d="M1546.31 710.51L1451.89 534.32" stroke="hsl(228.5, 77.2%, 51.5%)" stroke-width="1.5"></path><path d="M1546.31 710.51L1261.29 692.17" stroke="hsl(228.5, 77.2%, 51.5%)" stroke-width="1.5"></path><path d="M1546.31 710.51L1308.8 522.93" stroke="hsl(228.5, 77.2%, 51.5%)" stroke-width="1.5"></path><path d="M1546.31 710.51L1602.93 412.05" stroke="hsl(228.5, 77.2%, 51.5%)" stroke-width="1.5"></path><circle r="25" cx="63.04" cy="503.76" fill="url(&quot;#SvgjsRadialGradient1302&quot;)"></circle><circle r="25" cx="96.09" cy="670.41" fill="url(&quot;#SvgjsRadialGradient1302&quot;)"></circle><circle r="25" cx="341.06" cy="676.01" fill="url(&quot;#SvgjsRadialGradient1302&quot;)"></circle><circle r="25" cx="659.57" cy="411.02" fill="url(&quot;#SvgjsRadialGradient1302&quot;)"></circle><circle r="25" cx="836.12" cy="544.82" fill="url(&quot;#SvgjsRadialGradient1302&quot;)"></circle><circle r="25" cx="1005.08" cy="407.32" fill="url(&quot;#SvgjsRadialGradient1302&quot;)"></circle><circle r="25" cx="1096.47" cy="375.47" fill="url(&quot;#SvgjsRadialGradient1302&quot;)"></circle><circle r="25" cx="1308.8" cy="522.93" fill="url(&quot;#SvgjsRadialGradient1302&quot;)"></circle><circle r="25" cx="1432.27" cy="-39.84" fill="url(&quot;#SvgjsRadialGradient1302&quot;)"></circle><circle r="25" cx="1414.57" cy="201.58" fill="url(&quot;#SvgjsRadialGradient1302&quot;)"></circle><circle r="5" cx="-77.26" cy="552.68" fill="#8b9ad9"></circle><circle r="5" cx="231.16" cy="503.43" fill="#8b9ad9"></circle><circle r="5" cx="224.15" cy="661.8" fill="#8b9ad9"></circle><circle r="5" cx="341.08" cy="559.95" fill="#8b9ad9"></circle><circle r="5" cx="549.83" cy="527.52" fill="#8b9ad9"></circle><circle r="5" cx="530.33" cy="645.79" fill="#8b9ad9"></circle><circle r="5" cx="667.57" cy="508.84" fill="#8b9ad9"></circle><circle r="5" cx="690.09" cy="685.42" fill="#8b9ad9"></circle><circle r="5" cx="816.84" cy="409.44" fill="#8b9ad9"></circle><circle r="5" cx="836.93" cy="693.72" fill="#8b9ad9"></circle><circle r="5" cx="983.38" cy="562.25" fill="#8b9ad9"></circle><circle r="5" cx="985.13" cy="710.84" fill="#8b9ad9"></circle><circle r="5" cx="1096.99" cy="215.98" fill="#8b9ad9"></circle><circle r="5" cx="1145.27" cy="538.54" fill="#8b9ad9"></circle><circle r="5" cx="1096.31" cy="703.11" fill="#8b9ad9"></circle><circle r="5" cx="1305.54" cy="-85.94" fill="#8b9ad9"></circle><circle r="5" cx="1243.49" cy="77.72" fill="#8b9ad9"></circle><circle r="5" cx="1266.39" cy="219.05" fill="#8b9ad9"></circle><circle r="5" cx="1255.75" cy="366.08" fill="#8b9ad9"></circle><circle r="5" cx="1261.29" cy="692.17" fill="#8b9ad9"></circle><circle r="5" cx="1431.47" cy="77.09" fill="#8b9ad9"></circle><circle r="5" cx="1406.29" cy="390.35" fill="#8b9ad9"></circle><circle r="5" cx="1451.89" cy="534.32" fill="#8b9ad9"></circle><circle r="5" cx="1394.36" cy="670.62" fill="#8b9ad9"></circle><circle r="5" cx="1558.82" cy="-40.37" fill="#8b9ad9"></circle><circle r="5" cx="1573.41" cy="97.19" fill="#8b9ad9"></circle><circle r="5" cx="1565.76" cy="246.52" fill="#8b9ad9"></circle><circle r="5" cx="1602.93" cy="412.05" fill="#8b9ad9"></circle><circle r="5" cx="1556.39" cy="536.65" fill="#8b9ad9"></circle><circle r="5" cx="1546.31" cy="710.51" fill="#8b9ad9"></circle></g><defs><mask id="SvgjsMask1300"><rect width="1440" height="560" fill="#ffffff"></rect></mask><linearGradient x1="15.28%" y1="-39.29%" x2="84.72%" y2="139.29%" gradientUnits="userSpaceOnUse" id="SvgjsLinearGradient1301"><stop stop-color="#0e2a47" offset="0"></stop><stop stop-color="rgba(80, 104, 136, 1)" offset="1"></stop></linearGradient><radialGradient id="SvgjsRadialGradient1302"><stop stop-color="#ffffff" offset="0.1"></stop><stop stop-color="#1735b3" offset="0.2"></stop><stop stop-color="rgba(23, 53, 179, 0)" offset="1"></stop></radialGradient></defs></svg>